<?xml version="1.0" encoding="utf-8"?>
<!-- Generator: Adobe Illustrator 19.0.0, SVG Export Plug-In . SVG Version: 6.00 Build 0)  -->
<svg version="1.1" id="Слой_1" xmlns="http://www.w3.org/2000/svg" xmlns:xlink="http://www.w3.org/1999/xlink" x="0px" y="0px"
	 viewBox="-275 367 60 60" style="enable-background:new -275 367 60 60;" xml:space="preserve">
<style type="text/css">
	.st0{fill:#26A24C;}
	.st1{fill:#FFFFFF;}
</style>
<title>brand-logo_name_mir</title>
<desc>Created with Sketch.</desc>
<g id="Page-1">
	<g id="brand-logo_name_mir">
		<circle class="st0" cx="-245" cy="397" r="30"/>
		<path id="Shape" class="st1" d="M-242,392.4l-2.9,6.3h-0.3V391h-4.1v12.9h3.5c0.9,0,1.7-0.5,2.1-1.4l2.9-6.3h0.3v7.6h4.1V391h-3.5
			C-240.8,391-241.6,391.5-242,392.4 M-257.4,392.7l-1.7,5.9h-0.3l-1.7-5.9c-0.3-1-1.2-1.7-2.3-1.7h-4.1v12.9h4.1v-7.6h0.3l2.3,7.6
			h2.9l2.3-7.6h0.3v7.6h4.1V391h-4.1C-256.2,391-257.1,391.7-257.4,392.7 M-234.6,396.9v7h4.1v-4.1h4.4c1.9,0,3.5-1.2,4.1-2.9
			H-234.6 M-226.1,391h-9.1c0.6,3,3.2,5.3,6.4,5.3h7.1c0.1-0.3,0.1-0.6,0.1-0.9C-221.7,393-223.7,391-226.1,391"/>
	</g>
</g>
</svg>
