<svg width="40" height="40" fill="none" xmlns="http://www.w3.org/2000/svg"><g clip-path="url(#a)"><path fill-rule="evenodd" clip-rule="evenodd" d="M20 40c11.046 0 20-8.954 20-20S31.046 0 20 0 0 8.954 0 20s8.954 20 20 20Z" fill="#F4F1E9"/><path d="m18.775 6-.096 13.156 3.737 2.208v-9.026L18.775 6Z" fill="#FAB719"/><path d="M18.773 22.324V35l3.64-6.53v-3.841l-3.64-2.305Z" fill="#61B42C"/><path d="M31.999 26.552 9 12.34l3.45 6.146 13.032 8.066H32Z" fill="#208BC9"/><path d="m18.773 6 13.224 8.066H25.48l-3.066-1.728L18.772 6Z" fill="#F77C1C"/><path d="m22.417 16.14 3.067-2.074H32l-9.583 6.338v-4.263Z" fill="#D60B4C"/><path d="m22.414 28.467 3.066-1.92h6.517l-13.224 8.45 3.64-6.53Z" fill="#097F2D"/><path d="M9 12.34v16.133l3.258-5.954.192-4.033L9 12.34Z" fill="#5B59A1"/><path d="m15.555 20.406-3.297 2.113L9 28.473l9.774-6.146-3.22-1.92Z" fill="#9F4393"/></g><defs><clipPath id="a"><path fill="#fff" d="M0 0h40v40H0z"/></clipPath></defs></svg>